<?xml version="1.0" ?><svg width="100" height="100" data-name="Layer 3" id="Layer_3" viewBox="0 0 48 48" xmlns="http://www.w3.org/2000/svg"><defs><style>.cls-1{fill:#5979ff;}.cls-2{fill:#666;}.cls-3{fill:#b6acb8;}.cls-4{fill:#686886;}.cls-5{fill:#fff2f3;}.cls-6{fill:#dbd0d1;}.cls-7{fill:#9ca19a;}.cls-8{fill:#fcc960;}</style></defs><path class="cls-1" d="M29.98536,44.64286c-1.70013,2.73228-7.63266,2.29059-14.32586-1.87419s-9.78821-8.9471-8.08807-11.67938,7.5516-2.37988,14.2448,1.7849S31.6855,41.91057,29.98536,44.64286Z"/><path class="cls-2" d="M11.03013,25.41071,9.25,32.38955c1.29017,4.93188,16.04017,13.68969,23.39732,10.39616l-2.16965-3.375Z"/><path class="cls-3" d="M40.44643,19.47327c0,9.08311-.9259,20.87061-10.009,20.87061S7.55357,32.77679,7.55357,19.47327a16.44643,16.44643,0,0,1,32.89286,0Z"/><path class="cls-1" d="M40.46429,34.89154S37.524,40.31833,35.9375,41.41518c-3.25446,2.25-8.8125,3.067-13.6875-5.50447-.6566-1.15445-4.23721-2.77394-7.251-4.1839a7.05551,7.05551,0,0,1-4.0526-6.825h0C15.627,21.91819,29.06049,29.6469,40.46429,34.89154Z"/><circle class="cls-4" cx="26.27902" cy="35.87277" r="0.5"/><circle class="cls-4" cx="28.2433" cy="36.75446" r="0.5"/><circle class="cls-4" cx="26.69643" cy="38.07871" r="0.5"/><circle class="cls-4" cx="28.60424" cy="39" r="0.5"/><path class="cls-5" d="M11.75,15.8487S17.19128,3.06019,28.61018,2.41748a4.04511,4.04511,0,0,1,.65372.01461c2.94441.31235,6.34671,1.7914,7.85566,3.64458l4.5233,19.7894-.94165,8.21838A2.55388,2.55388,0,0,1,38.20564,36.34c-6.60321.138-14.66813-3.07963-21.57974-8.86265a9.5476,9.5476,0,0,1-3.05516-4.85808Z"/><path class="cls-6" d="M16.1278,20.94965a4.77922,4.77922,0,0,1-5.1641,4.793c-2.06832-.10676-3.5915-2.11535-3.5915-4.793s1.236-4.63713,3.27346-5.00893C14.3153,15.27108,16.1278,18.27206,16.1278,20.94965Z"/><path class="cls-4" d="M10.19971,16.85742a.50006.50006,0,0,1-.47315-.33789L6.106,5.96582a.50015.50015,0,0,1,.94629-.32422l3.6206,10.55371a.50091.50091,0,0,1-.47314.66211Z"/><ellipse class="cls-1" cx="10.52512" cy="20.94965" rx="3.15292" ry="4.39286"/><path class="cls-6" d="M10.52512,20.68179c0,.91648-.42433,1.66072-.94554,1.66072a.48673.48673,0,0,1-.22142-.04824,1.72469,1.72469,0,0,1-.72874-1.61248c0-.91652.42434-1.66077.95016-1.66077.29979,0,.56732.24811.74259.634A2.53651,2.53651,0,0,1,10.52512,20.68179Z"/><path class="cls-7" d="M16.75,14.77679S22.27679,5.817,33.40625,5.21429c5.60308-.30342,3.82037,2.99923,3.82037,2.99923Z"/><path class="cls-4" d="M16.75,14.77679a9.40353,9.40353,0,0,1,2.34821,9.147,3.81023,3.81023,0,0,0,1.20993,3.7228c4.36135,3.77682,10.82692,5.99735,15.88792,6.62573a4.40744,4.40744,0,0,0,4.39565-2.25868C44.843,24.19779,43.6799,13.21405,36.352,7.3895a.0515.0515,0,0,0-.02565-.01087C30.5411,6.66331,22.13845,10.41428,16.75,14.77679Z"/><path class="cls-3" d="M40.332,24.7373a.48545.48545,0,0,1-.07422-.00585.49826.49826,0,0,1-.4209-.56739c.07618-.51465.13282-1.041.168-1.57324a.50842.50842,0,0,1,.53223-.46582.50038.50038,0,0,1,.46582.53223c-.03613.54687-.0957,1.10351-.17773,1.65332A.49945.49945,0,0,1,40.332,24.7373Z"/><path class="cls-3" d="M40.50293,20.457a.49956.49956,0,0,1-.498-.4668c-.26465-3.95507-1.67871-7.1621-3.98144-9.03027a.50056.50056,0,1,1,.63086-.77734c2.5205,2.0459,4.06543,5.50586,4.34863,9.74121a.50037.50037,0,0,1-.46582.53222C40.52637,20.457,40.51465,20.457,40.50293,20.457Z"/><ellipse class="cls-8" cx="6.57905" cy="5.80357" rx="1.75751" ry="1.44643"/><path class="cls-4" d="M35.34473,39.085a7.423,7.423,0,0,1-2.15625-.34961.50043.50043,0,0,1,.293-.957,5.48963,5.48963,0,0,0,2.751.21582.49975.49975,0,1,1,.21289.97656A5.17282,5.17282,0,0,1,35.34473,39.085Z"/><path class="cls-4" d="M32.044,38.2666a.49966.49966,0,0,1-.20313-.043c-.14355-.06347-.28809-.13183-.43457-.20312a.49965.49965,0,0,1,.4375-.89844q.20215.09814.40332.1875a.5.5,0,0,1-.20312.957Z"/><path class="cls-4" d="M34.30859,40.8457a7.18151,7.18151,0,0,1-3.209-.918.50008.50008,0,1,1,.45508-.89062,4.917,4.917,0,0,0,3.63965.67871.50008.50008,0,0,1,.29687.95508A3.9602,3.9602,0,0,1,34.30859,40.8457Z"/></svg>